<svg version="1.1" id="_x35_" xmlns="http://www.w3.org/2000/svg"
  xmlns:xlink="http://www.w3.org/1999/xlink" viewBox="0 0 512 512"
  xml:space="preserve">
  <defs>
    <!-- Gradient for the "S" -->
    <linearGradient id="sGrad" x1="0" y1="0" x2="0" y2="1">
      <stop offset="0%" stop-color="#0b3b8c"/>
      <stop offset="100%" stop-color="#b892ff"/>
    </linearGradient>
  </defs>

  <!-- Group everything and center it -->
  <g transform="translate(256, 256)">
    <!-- Original Popcorn + Cup Graphic -->
    <g transform="translate(-206, -256)">
      <g>
        <g>
          <circle style="fill:#F5DDB2;" cx="55.093" cy="199.192" r="49.443"/>
          <circle style="fill:#F5DDB2;" cx="77.402" cy="153.987" r="49.443"/>
          <circle style="fill:#F5DDB2;" cx="135.507" cy="203.43" r="49.443"/>
          <circle style="fill:#F5DDB2;" cx="112.303" cy="104.536" r="49.443"/>
          <circle style="fill:#F5DDB2;" cx="211.79" cy="203.43" r="49.443"/>
          <circle style="fill:#F5DDB2;" cx="245.792" cy="94.657" r="49.443"/>
          <circle style="fill:#F5DDB2;" cx="177.279" cy="94.657" r="49.443"/>
          <circle style="fill:#F5DDB2;" cx="196.349" cy="144.1" r="49.443"/>
          <circle style="fill:#F5DDB2;" cx="146.906" cy="153.979" r="49.443"/>
          <circle style="fill:#F5DDB2;" cx="291.698" cy="179.415" r="49.443"/>
          <circle style="fill:#F5DDB2;" cx="346.088" cy="206.255" r="49.443"/>
          <circle style="fill:#F5DDB2;" cx="362.027" cy="187.892" r="49.443"/>
          <circle style="fill:#F5DDB2;" cx="289.511" cy="226.032" r="49.443"/>
          <path style="fill:#F5DDB2;" d="M401.185,124.304c0,1.876-0.078,3.751-0.312,5.626c-0.156,1.642-0.391,3.283-0.703,4.845
            c-0.078,0.548-0.157,1.016-0.312,1.563c-0.313,1.485-0.704,2.971-1.173,4.377c-0.547,1.719-1.172,3.438-1.875,5.08
            c-0.625,1.642-1.407,3.204-2.266,4.767v0.078h-0.078c-3.908,7.267-9.456,13.52-16.099,18.209
            c-9.066,6.641-20.163,10.549-32.276,10.549c-1.641,0-3.283-0.078-4.923-0.312c-6.565-0.468-12.816-2.188-18.443-4.923
            c-2.423-1.094-4.689-2.345-6.877-3.829c-0.704-0.391-1.407-0.859-2.032-1.484c-2.188-1.485-4.22-3.205-6.096-5.003
            c-9.065-8.83-15.083-20.631-16.411-33.838c-0.235-1.876-0.312-3.751-0.312-5.705c0-1.016,0-2.032,0.156-3.048
            c1.485-28.993,25.555-52.046,54.939-52.046h0.391l14.301,2.032c9.612,2.578,18.131,7.815,24.773,14.769
            c0.469,0.469,0.938,0.861,1.328,1.329c0.391,0.39,0.703,0.703,0.938,1.094c0.156,0.156,0.313,0.391,0.469,0.547
            c1.329,1.485,2.423,2.97,3.439,4.532c0.782,1.095,1.485,2.188,2.11,3.361c0.313,0.547,0.625,1.094,0.938,1.642
            c1.563,2.969,2.891,6.095,3.907,9.378c0.157,0.547,0.313,1.093,0.391,1.641c0,0,0.078,0,0.078,0.078
            c0.391,1.251,0.704,2.501,0.938,3.829C400.795,116.957,401.185,120.553,401.185,124.304z"/>
          <path style="fill:#F5DDB2;" d="M346.794,74.914c0,26.102-18.208,47.983-42.591,53.609c-3.985,1.017-8.206,1.485-12.504,1.485
            h-0.391c-3.439,0-6.799-0.39-10.003-1.016c-7.815-1.484-15.004-4.61-21.178-8.986c-6.408-4.455-11.801-10.238-15.708-16.959
            c-0.938-1.407-1.719-2.892-2.423-4.454c-3.439-7.191-5.392-15.24-5.392-23.679c0-10.941,3.204-21.101,8.753-29.697
            c4.767-7.58,11.488-13.911,19.381-18.287c7.971-4.531,17.115-7.111,26.961-7.111c22.429,0,41.732,13.363,50.25,32.588
            l4.533,16.803C346.715,71.085,346.794,72.96,346.794,74.914z"/>
          <circle style="fill:#F5DDB2;" cx="55.093" cy="136.321" r="55.093"/>
          <circle style="fill:#F5DDB2;" cx="86.064" cy="100.308" r="55.093"/>
          <circle style="fill:#F5DDB2;" cx="141.158" cy="62.967" r="55.093"/>
          <circle style="fill:#F5DDB2;" cx="217.441" cy="55.093" r="55.093"/>
          <circle style="fill:#F5DDB2;" cx="273.736" cy="167.504" r="49.443"/>
          <g>
            <polygon style="fill:#D6A048;" points="88.59,488.164 41.701,488.164 34.902,436.664 19.741,320.848 5.674,214.096 62.879,214.096 66.005,247.388 68.349,272.24 79.603,391.963 87.809,479.646"/>
            <polygon style="fill:#FFFFFF;" points="135.507,488.161 88.589,488.161 62.86,214.121 120.07,214.121"/>
            <polygon style="fill:#D6A048;" points="182.425,488.161 135.507,488.161 120.07,214.121 177.279,214.121"/>
            <polygon style="fill:#FFFFFF;" points="229.343,488.161 182.425,488.161 177.279,214.121 234.489,214.121"/>
            <polygon style="fill:#D6A048;" points="276.261,488.161 229.343,488.161 234.489,214.121 291.698,214.121"/>
            <polygon style="fill:#FFFFFF;" points="323.179,488.161 276.261,488.161 291.698,214.121 348.908,214.121"/>
            <polygon style="fill:#D6A048;" points="370.097,488.161 323.179,488.161 348.908,214.121 406.117,214.121"/>
          </g>
          <rect x="36.701" y="480.818" style="fill:#F2F2F2;" width="340.459" height="31.182"/>
        </g>
      </g>
    </g>

    <!-- Gradient "S" overlay -->
    <text x="-65" y="100"
      text-anchor="middle"
      font-family="Inter, Arial, sans-serif"
      font-weight="900"
      font-size="240"
      fill="url(#sGrad)"
      opacity="0.95"
      dominant-baseline="middle"
      style="paint-order:fill; filter: drop-shadow(0 2px 2px rgba(0,0,0,0.25));">
      S
    </text>
  </g>
</svg>
